<?xml version="1.0" encoding="utf-8"?>
<!-- Generator: Adobe Illustrator 19.0.0, SVG Export Plug-In . SVG Version: 6.00 Build 0)  -->
<svg version="1.1" id="Layer_1" xmlns="http://www.w3.org/2000/svg" x="0px" y="0px"
     viewBox="0 0 96 96" style="enable-background:new 0 0 96 96;" xml:space="preserve">
<style type="text/css">
	.st0{fill:#333333;}
</style>
<g id="XMLID_2_">
	<path id="XMLID_9_" class="st0" d="M74,22c-3.6-3.6-7.9-5-9.7-3.2l-6.5,6.5c1.8-1.8,6.2-0.3,9.7,3.2c3.6,3.6,5,7.9,3.2,9.7l6.5-6.5
		C79,30,77.6,25.6,74,22z M65.1,30.9c-3.6-3.6-7.9-5-9.7-3.2l-2.4,2.4c1.8-1.8,6.2-0.3,9.7,3.2c3.6,3.6,5,7.9,3.2,9.7l2.4-2.4
		C70.1,38.9,68.6,34.5,65.1,30.9z M60.2,35.8c-3.6-3.6-7.9-5-9.7-3.2L48,35c1.8-1.8,6.2-0.3,9.7,3.2c3.6,3.6,5,7.9,3.2,9.7l2.4-2.4
		C65.2,43.8,63.8,39.4,60.2,35.8z M55.3,40.7c-3.6-3.6-7.9-5-9.7-3.2L32.1,50.9l-2.7,2.7c1.8,1.8,4.4,2.2,6.4,1.3
		c0.2,1.3,0.7,2.6,1.7,3.6c1,1,2.3,1.6,3.6,1.7c-0.9,2-0.5,4.6,1.3,6.4l2.7-2.7l13.5-13.5C60.4,48.6,58.9,44.3,55.3,40.7z
		 M33.3,57.4c-2,0.9-4.6,0.5-6.4-1.3L18,78l21.9-8.9c-1.8-1.8-2.2-4.4-1.3-6.4C37.3,62.6,36.1,62,35,61C34,59.9,33.4,58.7,33.3,57.4
		z"/>
</g>
</svg>
