<?xml version="1.0" encoding="utf-8"?>
<svg version="1.1" id="Icons" x="0px" y="0px" viewBox="0 0 28 28" style="enable-background:new 0 0 32 32;" xmlns="http://www.w3.org/2000/svg">
  <style type="text/css">
	.st0{fill:none;stroke:#000000;stroke-width:2;stroke-linecap:round;stroke-linejoin:round;stroke-miterlimit:10;}
	.st1{fill:none;stroke:#000000;stroke-width:2;stroke-linejoin:round;stroke-miterlimit:10;}
</style>
  <path class="st0" d="M 15.898 21.112 C 14.198 20.712 12.898 19.112 12.898 17.312 C 14.298 16.512 15.298 14.912 15.298 13.112 C 15.298 12.212 15.998 11.512 16.898 11.512 L 16.898 9.612 C 16.898 7.312 15.198 5.312 12.998 5.012 C 11.398 4.812 9.998 5.512 9.098 6.712 C 8.398 6.512 7.798 6.612 6.998 7.212 C 6.198 7.812 5.698 8.812 5.698 9.812 L 5.698 10.612 L 5.698 11.812 L 5.698 12.812 C 5.698 14.612 6.598 16.312 8.098 17.212 C 8.098 19.012 6.798 20.612 5.098 21.012 C 2.998 21.712 1.398 23.312 0.998 25.512 C 0.998 25.712 1.198 26.012 1.398 26.012 L 19.498 26.012 C 19.798 26.012 19.998 25.712 19.898 25.512 C 19.598 23.312 17.998 21.612 15.898 21.112 Z"/>
  <path class="st0" d="M 23.698 10.912 C 23.698 12.712 22.698 14.212 21.298 15.112 C 21.298 16.512 22.198 17.712 23.398 18.112 C 24.998 18.712 26.298 20.112 26.598 21.812 L 26.698 22.512 C 26.798 22.812 26.498 23.012 26.298 23.012 L 18.798 23.012"/>
  <path class="st0" d="M 26.898 10.512 C 25.898 10.712 24.798 10.812 23.698 10.812 C 21.098 10.812 18.698 10.112 16.798 9.012"/>
  <path class="st0" d="M 12.598 5.012 C 13.998 2.912 16.298 2.012 18.998 2.012 C 23.398 2.012 26.998 4.612 26.998 10.912 C 26.998 13.612 26.298 16.612 25.198 19.012"/>
  <path style="stroke: rgb(0, 0, 0);" d="M 17.327 9.819 L 23.213 11.441 L 20.815 14.7 L 21.389 17.312 L 25.883 21.045 L 26.055 22.997 L 19.236 22.351 L 13.824 18.978 L 13.81 16.853 L 15.834 12.159 L 17.327 9.819 Z"/>
</svg>