<svg width="131" height="131" xmlns="http://www.w3.org/2000/svg">
    <!-- Source: https://de.wikipedia.org/wiki/Datei:Infobox_info_icon.svg -->
    <g fill="#89e0f3">
        <path d="m65.50765,0.50765c-35.88,0 -65,29.12 -65,65s29.12,65 65,65s65,-29.12 65,-65s-29.12,-65 -65,-65zm0,10c30.36,0 55,24.64 55,55s-24.64,55 -55,55s-55,-24.64 -55,-55s24.64,-55 55,-55z"
        />
        <path d="m75.50614,36.75835a11.24976,11.2501 0 1 1 -22.49976,0a11.24976,11.2501 0 1 1 22.49976,0z"/>
        <path d="m76.17265,96.46765c-0.069,2.73 1.211,3.5 4.327,3.82l5.008,0.1l0,5.12l-39.073,0l0,-5.12l5.503,-0.1c3.291,-0.1 4.082,-1.38 4.327,-3.82l0,-30.813c0.035,-4.879 -6.296,-4.113 -10.757,-3.968l0,-5.074l30.665,-1.105"
        />
    </g>
</svg>