<svg xmlns="http://www.w3.org/2000/svg" viewBox="6 2 15 21" width="18" height="21">
    <path fill="#2e3e50"
          d="M 17.58 4 L 14 4 L 14 2 L 21 2 L 21 9 L 19 9 L 19 5.41 L 15.17 9.24 C 15.69 10.03 16 11 16 12 C 16 14.42 14.28 16.44 12 16.9 L 12 19 L 14 19 L 14 21 L 12 21 L 12 23 L 10 23 L 10 21 L 8 21 L 8 19 L 10 19 L 10 16.9 C 7.72 16.44 6 14.42 6 12 C 6 9.239 8.239 7 11 7 C 12 7 12.96 7.3 13.75 7.83 L 17.58 4 M 11.013 12.168 C 9.357 12.168 11.021 10.517 11.021 12.174 C 11.021 13.831 9.316 12.206 10.973 12.206 C 12.63 12.206 10.618 13.777 10.618 12.12 C 10.618 10.463 12.67 12.168 11.013 12.168 Z"></path>
</svg>