<?xml version="1.0"?><svg xmlns="http://www.w3.org/2000/svg"  viewBox="0 0 30 30" width="30px" height="30px">
    <path fill="#9B9B9B" d="M 4.6582031 4 C 3.6182031 6.431 4.0382031 8.4602656 4.4082031 9.5722656 C 2.9152031 11.172266 2.0019531 13.3765 2.0019531 16.3125 C 2.0019531 23.5795 6.5919531 26 15.001953 26 C 23.411953 26 28.001953 23.5795 28.001953 16.3125 C 28.002953 13.4765 27.036656 11.264766 25.472656 9.6347656 C 25.696656 9.2667656 26.003906 8.5485 26.003906 7.1875 C 26.003906 5.1405 25.316406 4 25.316406 4 C 24.247406 4 21.735203 4.4310469 19.658203 6.4980469 C 18.183203 6.1310469 16.610906 6 15.003906 6 C 13.429906 6 11.888406 6.0862969 10.441406 6.4042969 C 10.348406 6.3182969 7.7612031 4 4.6582031 4 z M 10.005859 13.5 C 11.308859 13.514 13.458906 13.999 15.003906 14 C 16.548906 13.999 18.697 13.514 20 13.5 C 22.522 13.5 24 15.502656 24 17.972656 C 24 22.024656 21.656859 23.999 15.005859 24 L 15.003906 24 L 15 24 C 8.349 23.999 6.0058594 22.024656 6.0058594 17.972656 C 6.0058594 15.502656 7.4838594 13.5 10.005859 13.5 z M 10.5 17 A 1.5 2 0 0 0 9 19 A 1.5 2 0 0 0 10.5 21 A 1.5 2 0 0 0 12 19 A 1.5 2 0 0 0 10.5 17 z M 19.5 17 A 1.5 2 0 0 0 18 19 A 1.5 2 0 0 0 19.5 21 A 1.5 2 0 0 0 21 19 A 1.5 2 0 0 0 19.5 17 z"/></svg>