<svg width="64" height="58" xmlns="http://www.w3.org/2000/svg">
    <!-- Created with Method Draw - http://github.com/duopixel/Method-Draw/ -->
    <g>
        <g mask="url(#mask)">
            <g fill="red" transform="matrix(0.455407,0,0,0.455407,26.271447,23.867517) ">
                <path fill="#ffd42a" stroke="#000000" stroke-width="0"
                      d="m-53.09119,59.50004c-0.91397,1.76129 -1.9912,3.408 -1.9913,5.341l0.00903,0.80788c0,4.172 3.26587,6.69412 7.02057,6.69412l121.3197,0c3.755,0 6.98886,-3.12652 6.98886,-7.29852l-0.03986,-0.81148c0,-1.933 -0.95029,-3.61152 -1.991,-5.341l-60.0834,-107.7802c-2.6546,-2.94957 -6.9583,-2.94957 -9.6133,0.0004l-61.6193,108.3878z"
                />
            </g>
        </g>
        <mask id="mask">
            <rect x="0" y="0" fill="white" width="80" height="80"/>
            <path d="m37.01568,46.06105a4.35951,4.35951 0 1 1 -8.71902,0a4.35951,4.35951 0 1 1 8.71902,0z"/>
            <path d="m32.62779,15.77208c1.71269,0 4.37072,1.36457 4.37072,3.05957l-1.27923,17.61571c0,1.695 -1.3788,3.05957 -3.09149,3.05957c-1.71268,0 -3.09148,-1.36457 -3.09148,-3.05957l-1.49244,-17.61571c0,-1.695 2.87124,-3.05957 4.58392,-3.05957z"
            />
        </mask>
    </g>
</svg>