<?xml version="1.0" encoding="UTF-8" standalone="no"?><!DOCTYPE svg PUBLIC "-//W3C//DTD SVG 1.1//EN"
        "http://www.w3.org/Graphics/SVG/1.1/DTD/svg11.dtd">
<svg width="100%" height="100%" viewBox="2 2 20 20" version="1.1" xmlns="http://www.w3.org/2000/svg"
     style="fill-rule:evenodd;clip-rule:evenodd;stroke-linejoin:round;stroke-miterlimit:2;">
    <g id="Icon">
        <g>
            <path fill="#2e3e50" d="M10.47,3.709c-1.91,3.439 -6.435,11.584 -8.3,14.941c-0.301,0.542 -0.293,1.203 0.021,1.737c0.315,0.535 0.888,0.863 1.508,0.863l16.602,-0c0.62,-0 1.193,-0.328 1.508,-0.863c0.314,-0.534 0.322,-1.195 0.021,-1.737l-8.3,-14.941c-0.309,-0.555 -0.894,-0.9 -1.53,-0.9c-0.636,0 -1.221,0.345 -1.53,0.9l0,0Zm1.53,12.791c0.552,0 1,0.448 1,1c0,0.552 -0.448,1 -1,1c-0.552,0 -1,-0.448 -1,-1c0,-0.552 0.448,-1 1,-1Zm1.385,-7.006c0.03,-0.385 -0.103,-0.765 -0.365,-1.049c-0.263,-0.284 -0.632,-0.445 -1.019,-0.445c-0.001,0 -0.001,0 -0.002,0c-0.387,-0 -0.756,0.161 -1.019,0.445c-0.262,0.284 -0.395,0.664 -0.365,1.049c0.097,1.259 0.232,3.02 0.314,4.083c0.04,0.521 0.474,0.923 0.997,0.923c0.049,0 0.099,0 0.148,0c0.523,0 0.957,-0.402 0.997,-0.923c0.082,-1.063 0.217,-2.824 0.314,-4.083Z"/>
        </g>
    </g>
</svg>