<svg xmlns="http://www.w3.org/2000/svg" viewBox="0 0 1000 1000">
    <path d="M605,780c-19.4,0-35-15.6-35-35V360c0-19.4,15.6-35,35-35s35,15.6,35,35v385C640,764.4,624.4,780,605,780z M395,780c-19.4,0-35-15.6-35-35V360c0-19.4,15.6-35,35-35c19.4,0,35,15.6,35,35v385C430,764.4,414.4,780,395,780z M955,185H780v-70c0-57.9-46.7-105-104.2-105H325c-57.9,0-105,47.1-105,105v70H45c-19.4,0-35,15.6-35,35c0,19.4,15.6,35,35,35h910c19.4,0,35-15.6,35-35C990,200.6,974.4,185,955,185z M290,115c0-19.3,15.7-35,35-35h350.8C695,80,710,95.4,710,115v70H290V115z M745.1,990H255.1c-57.9,0-105-47.1-105-105V359.5c0-19.3,15.7-35,35-35c19.3,0,35,15.7,35,35V885c0,19.3,15.7,35,35,35h490.1c19.3,0,35-15.7,35-35V360.9c0-19.3,15.6-35,35-35c19.4,0,35,15.7,35,35V885C850.1,942.9,803,990,745.1,990z"/>
</svg>
