<?xml version="1.0"?>
<svg width="24" height="24" viewBox="0 0 24 24" fill="none" xmlns="http://www.w3.org/2000/svg">
    <path fill-rule="evenodd" clip-rule="evenodd" fill="black"
          d="M11 2C10.4477 2 10 2.44772 10 3V4H14V3C14 2.44772 13.5523 2 13 2H11ZM16 4V3C16 1.34315 14.6569 0 13 0H11C9.34315 0 8 1.34315 8 3V4H3C2.44772 4 2 4.44772 2 5C2 5.55228 2.44772 6 3 6H3.10496L4.80843 21.3313C4.97725 22.8506 6.26144 24 7.79009 24H16.2099C17.7386 24 19.0228 22.8506 19.1916 21.3313L20.895 6H21C21.5523 6 22 5.55228 22 5C22 4.44772 21.5523 4 21 4H16ZM18.8827 6H5.11726L6.7962 21.1104C6.85247 21.6169 7.28054 22 7.79009 22H16.2099C16.7195 22 17.1475 21.6169 17.2038 21.1104L18.8827 6ZM10 9C10.5523 9 11 9.44771 11 10V18C11 18.5523 10.5523 19 10 19C9.44772 19 9 18.5523 9 18V10C9 9.44771 9.44772 9 10 9ZM14 9C14.5523 9 15 9.44771 15 10V18C15 18.5523 14.5523 19 14 19C13.4477 19 13 18.5523 13 18V10C13 9.44771 13.4477 9 14 9Z"/>
</svg>