<?xml version="1.0" encoding="UTF-8" standalone="no"?>
<svg id="Layer_1" data-name="Layer 1" xmlns="http://www.w3.org/2000/svg" viewBox="0 0 128 128">
    <defs>
        <style>.cls-1{fill:#2d3e50;}</style>
    </defs>
    <title>a</title>
    <path class="cls-1"
          d="M122.52563,91.50186a9.06019,9.06019,0,0,0-6.496-6.80237L85.20384,76.91636,64,92.85029,42.79616,76.91636,11.9704,84.69948a9.06019,9.06019,0,0,0-6.496,6.80237l-1.34806,32.0515a3.20159,3.20159,0,0,0,3.30917,3.37052L64,126.37216l56.56451.55172a3.20159,3.20159,0,0,0,3.30917-3.37052Z"/>
    <path class="cls-1"
          d="M60.775,69.03412c1.04321.06658,5.9993.0864,7.30883-.08266C82.68764,67.06553,90.785,41.4345,90.785,27.8593a26.78477,26.78477,0,1,0-53.56954,0C37.21542,41.69783,45.6303,68.06572,60.775,69.03412Z"/>
</svg>