<?xml version="1.0" encoding="UTF-8" standalone="no"?> <svg id="Layer_1" data-name="Layer 1" xmlns="http://www.w3.org/2000/svg" viewBox="0 0 128 128"><defs><style>.cls-1{fill:#2d3e50;}</style></defs><title>b</title><path class="cls-1" d="M41.88523,48.12146a23.07693,23.07693,0,0,0,45.30472,0l3.52281-18.15815A24.30856,24.30856,0,0,0,66.62986,2.379H62.44533A24.30856,24.30856,0,0,0,38.36243,29.96331Z"/><path class="cls-1" d="M123.92423,119.216c-.0961-2.22042-.2242-4.85712-.395-7.66466-.36291-5.77522-.918-12.24428-1.772-17.25087a8.89465,8.89465,0,0,0-.26688-1.17423,12.393,12.393,0,0,0-6.437-7.8568c-7.15228-3.56549-19.55664-8.1771-28.06467-11.20877a4.63061,4.63061,0,0,0-.58711,1.09949q-6.48505,15.35606-12.9488,30.72274c-.13878.32024-.26688.62979-.40566.95009-.096,0-.28825.01062-.28825.01062L69.37041,80.20738A1.30483,1.30483,0,0,0,68.076,79.06723H59.924a1.30483,1.30483,0,0,0-1.29444,1.14015l-3.38839,26.63621s-.19221-.01062-.28825-.01062c-.13878-.3203-.26688-.62985-.40566-.95009q-6.469-15.35606-12.9488-30.72274a4.63061,4.63061,0,0,0-.58711-1.09949c-8.508,3.03167-20.91239,7.64329-28.06467,11.20877a12.393,12.393,0,0,0-6.437,7.8568,8.89465,8.89465,0,0,0-.26688,1.17423c-.854,5.00659-1.40911,11.47565-1.772,17.25087-.17084,2.80754-.29893,5.44423-.395,7.66466-.1494,3.83236-.19214,6.405-.19214,6.405H124.11638S124.07363,123.04832,123.92423,119.216Z"/></svg>