<?xml version="1.0" encoding="UTF-8" standalone="no"?>
<svg id="Layer_1" data-name="Layer 1" xmlns="http://www.w3.org/2000/svg" viewBox="0 0 48 48">
    <title>Email</title>
    <path fill="#2e3e50"
          d="M28.139,26.819a6.01,6.01,0,0,1-8.275,0L2.363,10.155A4.948,4.948,0,0,0,2,12V36a5.006,5.006,0,0,0,5,5H41a5.006,5.006,0,0,0,5-5V12a4.948,4.948,0,0,0-.363-1.845Z"/>
    <path fill="#2e3e50"
          d="M21.242,25.371a4.11,4.11,0,0,0,5.519,0L44.522,8.456A4.983,4.983,0,0,0,41,7H7A4.983,4.983,0,0,0,3.478,8.456Z"/>
</svg>