<?xml version="1.0" encoding="utf-8"?>
<svg version="1.1" id="Layer_1" x="0px" y="0px" viewBox="0 0 35 35" enable-background="new 0 0 50 50"
     xmlns="http://www.w3.org/2000/svg">
    <path d="M 2.562 16.531 L 15.476 16.531 C 16.029 16.531 16.476 16.084 16.476 15.531 L 16.476 2.617 C 16.476 2.064 16.029 1.617 15.476 1.617 L 2.562 1.617 C 2.009 1.617 1.562 2.064 1.562 2.617 L 1.562 15.531 C 1.562 16.083 2.01 16.531 2.562 16.531 Z"/>
    <path d="M 19.648 16.531 L 32.562 16.531 C 33.115 16.531 33.562 16.084 33.562 15.531 L 33.562 2.617 C 33.562 2.064 33.115 1.617 32.562 1.617 L 19.648 1.617 C 19.095 1.617 18.648 2.064 18.648 2.617 L 18.648 15.531 C 18.648 16.083 19.096 16.531 19.648 16.531 Z M 20.648 3.617 L 31.562 3.617 L 31.562 14.531 L 20.648 14.531 L 20.648 3.617 Z"/>
    <path d="M 2.562 33.617 L 15.476 33.617 C 16.029 33.617 16.476 33.17 16.476 32.617 L 16.476 19.702 C 16.476 19.149 16.029 18.702 15.476 18.702 L 2.562 18.702 C 2.009 18.702 1.562 19.149 1.562 19.702 L 1.562 32.616 C 1.562 33.169 2.01 33.617 2.562 33.617 Z M 3.562 20.702 L 14.476 20.702 L 14.476 31.616 L 3.562 31.616 L 3.562 20.702 Z"/>
    <path d="M 18.648 32.617 C 18.648 33.17 19.095 33.617 19.648 33.617 L 32.562 33.617 C 33.115 33.617 33.562 33.17 33.562 32.617 L 33.562 19.702 C 33.562 19.149 33.115 18.702 32.562 18.702 L 19.648 18.702 C 19.095 18.702 18.648 19.149 18.648 19.702 L 18.648 32.617 Z"/>
</svg>